<?xml version="1.0" encoding="iso-8859-1"?>

<!DOCTYPE svg PUBLIC "-//W3C//DTD SVG 1.1//EN" "http://www.w3.org/Graphics/SVG/1.1/DTD/svg11.dtd">
<!-- Uploaded to: SVG Repo, www.svgrepo.com, Generator: SVG Repo Mixer Tools -->
<svg height="800px" width="800px" version="1.1" id="_x36_" xmlns="http://www.w3.org/2000/svg" xmlns:xlink="http://www.w3.org/1999/xlink" 
	 viewBox="0 0 512 512"  xml:space="preserve">
<g>
	<path style="fill:#EDEDEC;" d="M501.244,182.467c-24.615-82.274-89.481-147.14-171.754-171.755C306.215,3.741,281.521,0,256,0
		c-25.56,0-50.255,3.741-73.53,10.752C100.197,35.327,35.331,100.193,10.755,182.467c-7.01,23.276-10.751,47.969-10.751,73.53
		c0,25.521,3.741,50.215,10.712,73.491c24.615,82.273,89.481,147.139,171.754,171.754c23.276,7.01,47.97,10.751,73.53,10.751
		c25.521,0,50.215-3.741,73.491-10.712c82.273-24.616,147.179-89.521,171.794-171.794c6.971-23.276,10.712-47.971,10.712-73.491
		C511.997,230.436,508.255,205.743,501.244,182.467z M329.491,341.657c-19.771,16.975-45.41,27.215-73.491,27.215
		c-28.082,0-53.759-10.241-73.53-27.215c-4.372-3.741-8.428-7.798-12.17-12.169c-16.975-19.771-27.214-45.41-27.214-73.491
		c0-28.081,10.24-53.759,27.214-73.53c3.742-4.372,7.798-8.429,12.17-12.17c19.771-16.976,45.449-27.214,73.53-27.214
		c28.081,0,53.72,10.239,73.491,27.214c4.372,3.741,8.428,7.798,12.17,12.17c16.975,19.77,27.214,45.449,27.214,73.53
		c0,28.081-10.24,53.72-27.214,73.491C337.918,333.859,333.862,337.916,329.491,341.657z"/>
	<g>
		<path style="fill:#BC3F3E;" d="M143.082,256.003c0,28.082,10.24,53.72,27.214,73.491H10.712C3.741,306.218,0,281.524,0,256.003
			c0-25.56,3.741-50.254,10.752-73.529h159.544C153.322,202.245,143.082,227.923,143.082,256.003z"/>
		<path style="fill:#BC3F3E;" d="M511.993,256.003c0,25.521-3.741,50.215-10.712,73.491H341.657
			c16.975-19.77,27.214-45.409,27.214-73.491c0-28.081-10.24-53.758-27.214-73.529h159.585
			C508.252,205.75,511.993,230.443,511.993,256.003z"/>
		<path style="fill:#BC3F3E;" d="M329.487,10.719v159.584c-19.771-16.974-45.41-27.214-73.491-27.214s-53.759,10.24-73.53,27.214
			V10.759c23.276-7.01,47.97-10.752,73.53-10.752C281.517,0.007,306.212,3.749,329.487,10.719z"/>
		<path style="fill:#BC3F3E;" d="M329.487,341.664v159.624C306.212,508.259,281.517,512,255.997,512
			c-25.56,0-50.255-3.741-73.53-10.751V341.664c19.771,16.975,45.45,27.214,73.53,27.214S309.716,358.638,329.487,341.664z"/>
	</g>
	
		<ellipse transform="matrix(-0.7296 0.6839 -0.6839 -0.7296 268.5618 99.4916)" style="fill:#FFFFFF;" cx="114.612" cy="102.839" rx="64.984" ry="32.871"/>
	<path style="fill:none;" d="M256,368.872c28.081,0,53.72-10.241,73.491-27.215c4.372-3.741,8.428-7.798,12.17-12.169
		c16.975-19.771,27.214-45.41,27.214-73.491c0-25.785-8.652-49.531-23.206-68.551l-158.22,158.22
		C206.469,360.22,230.214,368.872,256,368.872z"/>
	<path style="fill:#FFFFFF;" d="M345.668,187.446c14.555,19.021,23.206,42.766,23.206,68.551c0,28.081-10.24,53.72-27.214,73.491
		c-3.742,4.371-7.798,8.428-12.17,12.169c-19.771,16.975-45.41,27.215-73.491,27.215c-25.786,0-49.531-8.652-68.552-23.206
		l-26.923,26.923c26.442,20.303,59.516,32.399,95.435,32.399c86.645,0,156.907-70.222,156.907-156.867
		c0-35.926-12.107-69.005-32.424-95.449L345.668,187.446z"/>
	<path style="fill:#A4A0A4;" d="M182.47,341.657c-4.372-3.741-8.428-7.798-12.17-12.169c-16.975-19.771-27.214-45.41-27.214-73.491
		c0-28.081,10.24-53.759,27.214-73.53c3.742-4.372,7.798-8.429,12.17-12.17c19.771-16.976,45.449-27.214,73.53-27.214
		c28.081,0,53.72,10.239,73.491,27.214c4.372,3.741,8.428,7.798,12.17,12.17c1.387,1.616,2.712,3.286,4.008,4.979l34.774-34.774
		c-28.684-37.333-73.762-61.418-124.482-61.418c-86.645,0-156.866,70.222-156.866,156.867c0,50.727,24.09,95.796,61.432,124.468
		l26.923-26.923C185.755,344.37,184.086,343.045,182.47,341.657z"/>
	<path style="fill:#BC3F3E;" d="M170.314,182.474c-6.364,7.414-11.781,15.659-16.067,24.548c4.287-8.89,9.704-17.134,16.07-24.548
		H170.314z"/>
	<path style="fill:#BC3F3E;" d="M256.016,143.09c28.081,0,53.72,10.24,73.491,27.214v-0.01
		c-19.771-16.973-45.408-27.211-73.488-27.211c-28.081,0-53.758,10.239-73.529,27.214l-0.003,0.002l-0.001,0.005
		C202.257,153.329,227.935,143.09,256.016,143.09z"/>
	<path style="fill:#BC3F3E;" d="M357.749,304.954c7.145-14.808,11.146-31.406,11.146-48.958c0-0.057-0.007-0.113-0.007-0.171
		c0,0.059,0.004,0.118,0.004,0.178C368.891,273.553,364.891,290.149,357.749,304.954z"/>
	<path style="fill:#A61C42;" d="M143.102,256.003c0-17.55,4-34.163,11.145-48.982c4.286-8.889,9.703-17.134,16.067-24.548h-56.803
		c-9.219,19.975-14.398,42.2-14.398,65.646c0,29.818,8.374,57.647,22.82,81.374h48.383
		C153.342,309.723,143.102,284.085,143.102,256.003z"/>
	<path style="fill:#C62751;" d="M398.466,182.474H350.66h-8.975h-0.008c0.139,0.163,0.269,0.332,0.408,0.496
		c1.193,1.412,2.352,2.853,3.478,4.321c0.041,0.053,0.079,0.107,0.12,0.16c0.042,0.055,0.083,0.111,0.125,0.166
		c5.35,7.019,9.897,14.679,13.505,22.844c0.052,0.119,0.109,0.236,0.16,0.355c1.121,2.56,2.134,5.177,3.067,7.832
		c0.109,0.312,0.222,0.623,0.329,0.937c0.873,2.56,1.649,5.164,2.34,7.804c0.107,0.412,0.212,0.825,0.315,1.238
		c0.651,2.611,1.215,5.256,1.681,7.935c0.074,0.432,0.139,0.867,0.208,1.3c0.44,2.718,0.798,5.462,1.04,8.241
		c0.03,0.344,0.044,0.691,0.07,1.035c0.223,2.869,0.36,5.762,0.364,8.688c0,0.058,0.007,0.114,0.007,0.171
		c0,17.552-4.001,34.149-11.146,48.958c-4.287,8.884-9.706,17.125-16.072,24.54h48.473c14.427-23.724,22.737-51.577,22.737-81.374
		C412.886,224.668,407.7,202.446,398.466,182.474z"/>
	<path style="fill:#A61C42;" d="M182.49,170.298c19.771-16.976,45.449-27.214,73.529-27.214c28.08,0,53.717,10.238,73.488,27.211
		v-60.699c-21.938-11.675-46.942-18.343-73.527-18.343c-26.563,0-51.568,6.623-73.494,18.273V170.3L182.49,170.298z"/>
	<path style="fill:#C62751;" d="M256.016,368.878c-3.114,0-6.193-0.146-9.244-0.394c-0.155-0.012-0.313-0.018-0.47-0.031
		c-2.95-0.252-5.864-0.629-8.745-1.103c-0.251-0.041-0.504-0.078-0.756-0.121c-2.848-0.489-5.66-1.086-8.431-1.785
		c-0.232-0.059-0.465-0.117-0.698-0.178c-2.815-0.729-5.59-1.557-8.316-2.494c-0.117-0.04-0.234-0.083-0.351-0.123
		c-11.459-3.98-22.084-9.748-31.537-16.982l-0.005,0.005c-1.692-1.295-3.361-2.62-4.977-4.007v8.983v36.046
		c21.923,11.661,46.925,18.294,73.494,18.294c26.573,0,51.59-6.628,73.527-18.286v-45.036
		C309.736,358.639,284.097,368.878,256.016,368.878z"/>
</g>
</svg>