<!DOCTYPE svg PUBLIC "-//W3C//DTD SVG 1.1//EN" "http://www.w3.org/Graphics/SVG/1.1/DTD/svg11.dtd">
<!-- Uploaded to: SVG Repo, www.svgrepo.com, Transformed by: SVG Repo Mixer Tools -->
<svg width="800px" height="800px" viewBox="0 0 1024 1024" class="icon" version="1.1" xmlns="http://www.w3.org/2000/svg" fill="#000000">
<g id="SVGRepo_bgCarrier" stroke-width="0"/>
<g id="SVGRepo_tracerCarrier" stroke-linecap="round" stroke-linejoin="round"/>
<g id="SVGRepo_iconCarrier">
<path d="M464.77 941.82c-74 0-110.64-36.68-121.46-70.57-160.81-93.52-219.49-242.4-202.93-388.72q31.88-281.66 372-215 340.17-66.64 372 215c20.45 180.67-77.29 390.66-349.63 458q-61.41 1.29-69.98 1.29z" fill="#FFFFFF"/>
<path d="M464.77 941.82c-74 0-54.31-36.68-65.13-70.57-99.76-96-194-234.28-180.39-354.93 16.63-147 66.39-270.71 293.17-226.29 226.78-44.42 350.79 4.72 372 192.5 20.45 180.67-77.29 390.66-349.63 458q-61.45 1.29-70.02 1.29z" fill="#FFD2D1"/>
<path d="M379.21 902.74q260.94-167.93 260.91-406.26 0-117-31.45-240.1Q872.23 235.74 900 482.55c20.36 180.67-77 390.66-348.17 458q-61.24 1.3-69.77 1.3c-50.55-0.01-83.61-17.3-102.85-39.11z" fill="#FF9EBB"/>
<path d="M357.82 539.36a20.48 20.48 0 1 1-40.94-1.28c5.69-182.19 83.94-283.69 232.24-296.8a20.48 20.48 0 0 1 3.6 40.8C427 293.19 362.91 376.37 357.82 539.36z" fill=""/>
<path d="M864.12 484.83C844.34 310.07 732.28 245.31 516.36 287.6l-3.94 0.77-3.94-0.77c-215.92-42.3-328 22.47-347.76 197.23-17 149.82 48.78 284.91 192.87 368.71l6.82 4 2.4 7.51c10.42 32.66 45.31 56.32 102 56.32 5.39 0 29.23 2.66 67.34-1.25 235.01-59.06 354.31-237.9 331.97-435.29z m-351.7-238.18c235.2-44.92 369.79 33.91 392.39 233.58C929.5 698.37 796.53 896.92 539.75 960.4L520 963c-28 1-50 0-55.23-0.7-69.48-9.31-119.6-31.12-138.21-77.16C172.7 792.75 101.53 643.73 120 480.23c22.63-199.68 157.23-278.5 392.42-233.58z" fill=""/>
<path d="M535.47 263.33c0.64-35.87 11-81.54 40.86-117.15 54-64.33 146.42-75.68 166.83-58.56S768.43 197.69 714.43 262l-1.35 1.58q-73.39-17.58-177.61-0.25z" fill="#89D66D"/>
<path d="M548.81 280.85a10.24 10.24 0 0 1-6.7-18l134.84-116.63a10.24 10.24 0 1 1 13.4 15.49L555.5 278.35a10.2 10.2 0 0 1-6.69 2.5z" fill="#015200"/>
<path d="M705 237.89c18-24.69 28.6-55 31.33-85.6 2.34-26.2-2.24-48.58-6.3-52s-26.92-4-52.33 2.82c-32.93 8.89-63.9 27.29-85.7 53.24-18.39 21.9-29.74 50.22-34.08 80q83.13-10.81 147.08 1.54zM515 260c0.84-47 15.68-94.25 45.65-130 53.11-63.26 159-91.82 195.68-61.08s26.91 140-26.2 203.25l-1.53 1.8-8.14 9.44-12.12-2.9q-69-16.5-169.5 0l-24.27 4z" fill=""/>
<path d="M461.71 269.2q-63.32-10.94-107.9 0.17l-0.82-1c-32.81-40.73-29.85-99.58-17.45-110.42s68.54-3.65 101.35 37.05c18.11 22.58 24.43 51.49 24.82 74.2z" fill="#89D66D"/>
<path d="M449 270.24a10.2 10.2 0 0 1-6.78-2.57l-74.05-65.53a10.24 10.24 0 0 1 13.57-15.34l74.05 65.53a10.24 10.24 0 0 1-6.79 17.91z" fill="#015200"/>
<path d="M472.16 277.4L460 275.29c-40.6-7-75.49-7-103.68 0l-6.32 1.58-4.11-5-0.9-1.1c-21.17-26.28-26.57-56.37-27.9-72-1.63-19.05 0.58-42.87 11.69-52.58 8.21-7.18 22.11-7.62 32.32-6.73 24.66 2.16 59.61 15.13 83.74 45.1 22.87 28.44 26.8 62.61 27.1 80.44zM353.79 159.66c-7.32 0-10.87 1.49-11.52 2-2.45 2.29-6.52 15.57-4.72 35.79 1.1 12.39 5.23 35.55 20.35 56.47 26.5-5.53 57.61-5.81 92.74-0.84-1.74-15.09-6.91-37.25-21.72-55.65-19.58-24.31-48.06-35.26-68.18-37.4a65.63 65.63 0 0 0-6.95-0.37z" fill=""/>
<path d="M498.94 261.82a20.41 20.41 0 0 1-13.86-5.4C403 180.9 339.05 135.76 295.14 122.22a20.48 20.48 0 1 1 12.06-39.14c50.49 15.56 117.74 62.39 205.61 143.18a20.48 20.48 0 0 1-13.87 35.56z" fill=""/>
</g>
</svg>